<?xml version="1.0" encoding="UTF-8" standalone="no"?>
<!-- Created with Inkscape (http://www.inkscape.org/) -->

<svg
   xmlns:dc="http://purl.org/dc/elements/1.1/"
   xmlns:cc="http://creativecommons.org/ns#"
   xmlns:rdf="http://www.w3.org/1999/02/22-rdf-syntax-ns#"
   xmlns:svg="http://www.w3.org/2000/svg"
   xmlns="http://www.w3.org/2000/svg"
   xmlns:sodipodi="http://sodipodi.sourceforge.net/DTD/sodipodi-0.dtd"
   xmlns:inkscape="http://www.inkscape.org/namespaces/inkscape"
   inkscape:version="0.91 r13725"
   version="1.1"
   id="svg2"
   viewBox="0 0 744.09448819 1052.3622047"
   height="297mm"
   width="210mm"
   sodipodi:docname="q.svg"
   inkscape:export-filename="/home/kyle/Dropbox/CSCI3308/TeamProject/q/q.svg.png"
   inkscape:export-xdpi="90"
   inkscape:export-ydpi="90">
  <sodipodi:namedview
     inkscape:window-maximized="1"
     inkscape:window-y="24"
     inkscape:window-x="0"
     inkscape:window-height="993"
     inkscape:window-width="1920"
     inkscape:snap-page="true"
     showgrid="false"
     inkscape:current-layer="layer2"
     inkscape:document-units="px"
     inkscape:cy="686.71418"
     inkscape:cx="55.067047"
     inkscape:zoom="0.70710678"
     inkscape:pageshadow="2"
     inkscape:pageopacity="0.0"
     borderopacity="1.0"
     bordercolor="#666666"
     pagecolor="#ffffff"
     id="base" />
  <defs
     id="defs4" />
  <metadata
     id="metadata7">
    <rdf:RDF>
      <cc:Work
         rdf:about="">
        <dc:format>image/svg+xml</dc:format>
        <dc:type
           rdf:resource="http://purl.org/dc/dcmitype/StillImage" />
      </cc:Work>
    </rdf:RDF>
  </metadata>
  <g
     inkscape:groupmode="layer"
     id="layer4"
     inkscape:label="Dark Blue"
     style="display:inline" />
  <g
     inkscape:groupmode="layer"
     id="layer3"
     inkscape:label="Light Green"
     style="display:inline" />
  <g
     inkscape:groupmode="layer"
     id="layer5"
     inkscape:label="Dark Green"
     style="display:inline" />
  <g
     inkscape:groupmode="layer"
     id="layer7"
     inkscape:label="Light Blue"
     style="display:inline" />
  <g
     inkscape:groupmode="layer"
     id="layer6"
     inkscape:label="Blue"
     style="display:inline" />
  <g
     inkscape:groupmode="layer"
     id="layer2"
     inkscape:label="Dark Blue Tip"
     style="display:inline">
    <g
       id="g4254">
      <path
         sodipodi:nodetypes="cscsscsscscsssssssssssssssssscscc"
         style="display:inline;fill:#006a9c"
         d="m 606.11662,886.41274 c -36.64083,-10.853 -74.23197,-52.14775 -80.16853,-88.06709 -1.39251,-8.42534 -2.55195,-41.29696 -2.57655,-73.0481 -0.0366,-45.69352 -1.25233,-58.40712 -5.83679,-60.98037 -4.77977,-2.68285 -6.0232,-25.98739 -7.11438,-133.34247 l -1.32234,-130.09145 -14.85278,-30.49019 c -20.06592,-41.19175 -56.51116,-79.72215 -82.92777,-87.6724 -24.25429,-7.29948 -42.65585,-7.30931 -69.97233,-0.0366 -68.0273,18.1093 -114.93511,79.4253 -114.83063,150.10187 l 0.0411,27.83644 27.44117,28.46194 c 40.69374,42.20756 63.88153,53.46323 124.08598,60.23335 17.86843,2.00931 32.21483,6.30371 40.86872,12.23348 46.87585,32.11982 46.40951,100.36319 -0.89357,130.76748 -18.24484,11.72693 -19.81825,11.99552 -61.41085,10.4824 -70.13758,-2.55157 -131.01343,-28.0188 -185.18676,-77.47234 -23.17107,-21.1523 -26.62574,-23.01976 -34.03038,-18.3955 -10.21868,6.38168 -14.58252,1.39243 -34.43423,-39.36937 C 82.408567,525.29195 75.75008,499.17995 73.213866,450.77081 69.449711,378.92435 79.819259,333.23416 112.64527,277.02819 145.22639,221.2416 180.53773,187.7446 238.27865,157.84987 286.6871,132.78694 322.989,124.36742 381.03918,124.7394 c 53.94405,0.34555 85.76659,22.54787 129.94988,45.00633 39.65886,20.15868 35.4931,16.12643 29.50275,25.71844 -4.37461,7.00489 5.03507,10.79876 31.55072,37.9343 48.60102,49.73729 89.44975,119.42933 89.54167,183.50478 0.0569,39.784 4.44697,67.32074 10.7323,67.32074 4.65552,0 5.39668,33.19608 4.51543,202.25155 l -1.05431,202.2515 -28.4575,0.731 c -15.65163,0.4021 -34.19324,-0.968 -41.20358,-3.0444 z"
         id="path3446"
         inkscape:connector-curvature="0" />
      <path
         sodipodi:nodetypes="csccsssssssccssssscssssssssssc"
         style="display:inline;fill:#00f02c"
         d="m 351.88284,276.89598 c -73.17998,17.00999 -124.7664,74.98972 -128.61516,144.55502 -0.87327,15.78412 0.35288,35.72608 2.72432,44.31545 l 4.31209,15.61707 -46.82691,46.87032 c -46.13648,46.1793 -46.78922,47.09311 -44.27361,61.98293 1.44507,8.55319 -5.12284,17.16902 -7.41005,18.58259 -10.89175,6.73146 -44.186621,-75.7216 -53.305543,-124.02903 -7.942531,-42.07548 -8.111527,-74.32775 -0.61017,-116.42993 6.611695,-37.10888 13.090696,-54.07418 35.026633,-91.7174 32.24252,-55.32981 67.77744,-88.99182 125.37429,-118.76618 54.49812,-28.17252 100.27742,-36.87048 161.96935,-30.7737 m 0,0 c 66.66101,6.58783 156.09539,43.73748 149.11106,61.93841 -1.03228,2.69 12.35434,19.5016 29.74797,37.35905 50.51118,51.85799 82.38391,125.47605 82.47717,190.50177 0.0569,39.784 4.44697,67.32074 10.7323,67.32074 4.65552,0 5.39668,33.19609 4.51543,202.25155 l -1.05431,202.2516 -28.4575,0.921 c -15.76546,0.5102 -35.01696,-1.4601 -43.16483,-4.4178 -33.58067,-12.1899 -53.64285,-30.1575 -70.99351,-63.58165 -6.04775,-11.6503 -7.79231,-27.70106 -9.62701,-88.5739 -1.51496,-50.26502 -4.4025,-72.64583 -7.62344,-74.63371 -3.42815,-2.11582 -5.38648,-39.91283 -6.34651,-130.57051 0,0 -0.42979,-83.0964 -4.70952,-123.80442 -1.22964,-11.69652 -10.53887,-33.67218 -10.53887,-33.67218 -8.65067,-17.84399 -23.40459,-39.38221 -35.57188,-51.92905 -11.43471,-11.7914 -25.04037,-23.71095 -25.04037,-26.79347 0,-12.8593 -49.76851,-22.22494 -81.82142,-14.77457"
         id="path3444"
         inkscape:connector-curvature="0" />
      <path
         sodipodi:nodetypes="ssssssscsssssssssazsscsscs"
         style="display:inline;fill:#00a122"
         d="m 604.15537,885.22944 c -22.42192,-8.1392 -43.37453,-22.3088 -54.01084,-36.5258 -22.5131,-30.09214 -24.18413,-37.11851 -27.70477,-116.49372 -1.83469,-41.36502 -3.61536,-81.27817 -3.95697,-88.69595 -0.56834,-12.3401 5.57011,-19.68523 72.19648,-86.38885 40.04971,-40.09609 76.05525,-72.90203 80.01234,-72.90203 6.80037,0 7.1369,11.08412 6.1404,202.25155 l -1.05431,202.2516 -28.4575,0.921 c -15.76546,0.5102 -35.01696,-1.4601 -43.16483,-4.4178 z M 114.29121,592.0361 C 79.877265,543.35027 72.124879,478.94313 72.125488,429.908 c 3.66e-4,-30.24033 3.655773,-83.04424 21.621037,-118.80492 15.310955,-30.47717 43.569045,-76.31111 64.163505,-97.58399 18.88708,-19.50933 68.65661,-53.58467 101.03223,-67.1574 72.21104,-30.27272 152.03312,-29.70691 214.27517,-9.06696 32.86195,10.89731 72.60039,30.10118 78.04724,53.20389 4.54833,19.29164 -29.97852,38.6258 -46.71652,56.39347 -18.48211,19.61908 -41.88289,60.80475 -59.08305,55.20566 -17.20016,-5.59906 -32.97582,-19.54478 -57.40493,-19.16967 -57.44688,0.8821 -111.93869,17.73805 -147.90133,88.50715 -14.90478,29.33038 -13.06243,83.60847 2.52381,101.11381 25.39384,25.20293 -34.3652,48.34432 -50.56173,65.62275 -17.47625,18.64362 -49.98782,50.01226 -48.0421,59.74103 1.35454,6.7726 -10.83942,11.53114 -12.27217,11.34137 -8.71454,0.12806 -8.11999,-3.92624 -17.51544,-17.21809 z"
         id="path3442"
         inkscape:connector-curvature="0" />
      <path
         sodipodi:nodetypes="ssssssscss"
         style="display:inline;fill:#00a3e6"
         d="m 603.53036,886.35444 c -22.54692,-7.8267 -42.95974,-23.0246 -53.38583,-37.6508 -22.36841,-31.37952 -27.36612,-37.64883 -27.70477,-116.49372 -0.17765,-41.40531 -3.61536,-81.27817 -3.95697,-88.69595 -0.56834,-12.3401 5.57011,-19.68523 72.19648,-86.38885 40.04971,-40.09609 76.05525,-72.90203 80.01234,-72.90203 6.80037,0 7.1369,11.08412 6.1404,202.25155 l -1.05431,202.2516 -28.4575,0.921 c -15.76546,0.5102 -35.60107,-0.4502 -43.78984,-3.2928 z"
         id="path3440"
         inkscape:connector-curvature="0" />
      <path
         sodipodi:nodetypes="ssssssssss"
         style="display:inline;fill:#006fc4"
         d="m 541.0315,816.56609 c -5.2324,-10.02468 -7.76406,-30.85041 -10.49306,-86.31763 -2.69273,-54.73065 -9.69811,-62.12883 -14.18131,-67.08275 -4.40318,-4.86546 -6.11702,-15.81794 -3.28273,-22.96179 2.12004,-5.34359 40.67203,-46.63136 78.6491,-84.40459 51.07663,-50.8025 75.4617,-73.78808 80.49779,-71.85553 6.23455,2.39242 1.92177,17.56442 -0.75161,117.1543 -1.60561,59.81378 -4.04405,111.86304 -5.41875,115.66496 -3.86087,10.67771 -105.42457,113.01545 -112.16066,113.01545 -3.27941,0 -9.06583,-5.94559 -12.85877,-13.21242 z"
         id="path3434"
         inkscape:connector-curvature="0" />
      <path
         sodipodi:nodetypes="sszcssssss"
         style="fill:#003283"
         d="m 332.47373,701.58326 c -46.9926,-4.00019 -103.38213,-29.25281 -126.82078,-49.28295 0,0 -2.28555,-1.03118 -2.24689,-7.6223 0.0366,-6.59112 18.67191,-27.36083 18.67191,-27.36083 l 26.92202,-28.98588 c 35.85263,-38.6011 55.0234,-55.33452 61.33015,-53.57711 25.65606,7.14922 48.59163,12.85072 62.1883,13.82474 40.81668,2.92388 53.92632,9.73702 71.22666,39.97173 14.19997,24.81633 13.15855,58.31797 -3.80758,82.75361 -25.27493,36.40252 -42.37964,35.81922 -107.46379,30.27899 z"
         id="path3436"
         inkscape:connector-curvature="0" />
    </g>
  </g>
</svg>
